<svg xmlns="http://www.w3.org/2000/svg" x="0px" y="0px"
width="500" height="500"
viewBox="0 0 172 172"
style=" fill:#000000;"><g fill="none" fill-rule="nonzero" stroke="none" stroke-width="1" stroke-linecap="butt" stroke-linejoin="miter" stroke-miterlimit="10" stroke-dasharray="" stroke-dashoffset="0" font-family="none" font-weight="none" font-size="none" text-anchor="none" style="mix-blend-mode: normal"><path d="M0,172v-172h172v172z" fill="none"></path><g fill="#e74c3c"><path d="M56.76,0c-10.4275,0 -18.92,8.4925 -18.92,18.92c0,10.4275 8.4925,18.92 18.92,18.92c10.4275,0 18.92,-8.4925 18.92,-18.92c0,-10.4275 -8.4925,-18.92 -18.92,-18.92zM113.47969,0c-0.86,0 -1.67969,0.08063 -2.43219,0.24188c-8.39844,1.20937 -14.7275,8.50594 -14.71406,16.60875l-3.44,31.53781c-0.14781,1.57219 0.77938,3.05031 2.27094,3.58781c0.34937,0.12094 8.69406,3.06375 18.35562,3.06375c9.76906,0 18.20781,-3.56094 18.55719,-3.70875c1.38406,-0.60469 2.23063,-2.01562 2.08281,-3.50719l-3.44,-30.81219c-0.09406,-8.37156 -6.38281,-15.56063 -14.56625,-16.74313c-0.91375,-0.18812 -1.81406,-0.26875 -2.67406,-0.26875zM39.43906,44.72l-0.05375,0.01344c-10.36031,0.09406 -18.74531,8.53281 -18.74531,18.90656v49.88c0,3.80281 3.09063,6.88 6.88,6.88c3.78938,0 6.88,-3.07719 6.88,-6.88v-41.28c0,-0.92719 0.79281,-1.72 1.72,-1.72c0.92719,0 1.72,0.79281 1.72,1.72v90.47469c0,5.375 2.87563,9.28531 8.26406,9.28531c5.09281,0 8.93594,-3.99094 8.93594,-9.28531v-46.78937c0,-0.92719 0.73906,-1.66625 1.66625,-1.70656c0.91375,0.04031 1.65281,0.77938 1.65281,1.70656v46.78937c0,5.29438 3.84312,9.28531 8.93594,9.28531c0.73906,0 1.42438,-0.09406 2.05594,-0.22844c-0.37625,-1.14219 -0.59125,-2.35156 -0.55094,-3.57438c0.14781,-4.01781 1.31688,-26.86156 6.88,-48.2675v-21.09687l18.1675,-26.21656c0.22844,-0.1075 0.48375,-0.215 0.7525,-0.215c0.95406,0 1.72,0.76594 1.72,1.72c0,0.08063 1.03469,4.66281 1.97531,8.80156c0.44344,-0.215 0.92719,-0.36281 1.46469,-0.36281c4.81063,0 9.27188,3.09063 11.98625,5.46906c2.64719,-2.39188 7.05469,-5.46906 12.09375,-5.46906c0.5375,0 1.02125,0.14781 1.46469,0.36281c1.03469,-4.09844 2.19031,-8.68063 2.19031,-8.74781c0,-0.95406 0.76594,-1.72 1.72,-1.72c0.65844,0 1.23625,0.38969 1.505,0.95406l12.06688,33.92969c1.03469,2.05594 2.06937,4.12531 5.84531,4.12531c6.54406,-0.01344 7.04125,-5.17344 5.32125,-9.98406c0,-0.34937 -13.76,-43 -13.76,-43c-0.36281,-1.34375 -0.86,-2.62031 -1.41094,-3.85656c-1.04812,1.29 -2.39187,2.33813 -3.99094,3.03688c-1.03469,0.43 -10.33344,4.25969 -21.27156,4.25969c-10.57531,0 -19.65906,-3.10406 -20.68031,-3.46687c-2.01562,-0.72563 -3.655,-2.02906 -4.85094,-3.68188l-28.20531,39.82875c-1.06156,1.6125 -1.43781,3.46688 -1.20937,5.22719c-0.04031,-0.01344 -0.06719,-0.04031 -0.09406,-0.06719c-7.49812,-7.13531 1.3975,-17.2 1.3975,-17.2l22.50781,-31.76625l2.00219,-2.83531c-2.96969,-2.00219 -6.53062,-3.19812 -10.37375,-3.23844c-0.01344,0 -0.04031,0 -0.05375,0zM123.96094,89.42656c-0.04031,0 -0.08062,0.01344 -0.12094,0.01344c-3.85656,0 -8.08937,4.07156 -9.39281,5.64375c-0.63156,0.76594 -1.58562,1.22281 -2.59344,1.23625h-0.05375c-0.98094,0 -1.935,-0.43 -2.58,-1.16906c-1.31687,-1.47812 -5.85875,-5.71094 -9.46,-5.71094c-0.01344,0.01344 -0.90031,0.41656 -1.505,0.86c-19.14844,14.70063 -22.33312,70.99031 -22.575,78.13906c-0.02687,0.92719 0.30906,1.84094 0.9675,2.49937c0.645,0.68531 1.54531,1.06156 2.4725,1.06156h65.36c0.92719,0 1.8275,-0.37625 2.4725,-1.04812c0.645,-0.67188 0.99438,-1.57219 0.9675,-2.49938c-0.24187,-7.17562 -3.81625,-63.89531 -22.96469,-78.59594c-0.29563,-0.215 -0.645,-0.33594 -0.99438,-0.43z"></path></g></g></svg>