<svg height="500" viewBox="0 0 64 64" width="500" xmlns="http://www.w3.org/2000/svg"><g id="Layer_32" data-name="Layer 32"><circle cx="54" cy="54" fill="#f4b2b0" r="8"/><circle cx="54" cy="34" fill="#f4b2b0" r="8"/><g fill="#b3404a"><path d="m50.35 18.94a1 1 0 0 0 .36-1.65l-2.32-2.29a4.51 4.51 0 0 0 -6.39-6.39l-2.29-2.32a1 1 0 0 0 -1.65.36l-3 8-2.57 2.57a5.15 5.15 0 0 0 3.65 8.78 6.11 6.11 0 0 0 .86-.08v2.08h-1a1 1 0 0 0 -1 1v9h-10v-2a10 10 0 0 0 3.16-4h1.34a3.49 3.49 0 0 0 .5-6.95v-2.05a11 11 0 0 0 -22 0v2.05a3.49 3.49 0 0 0 .5 7h1.34a10 10 0 0 0 3.16 3.95v2h-2a10 10 0 0 0 -10 10v14a1 1 0 0 0 1 1h31a1 1 0 0 0 1-1v-14h4a5 5 0 0 0 5-5v-21.31zm-3.56-8.73a2.54 2.54 0 0 1 .21 3.36l-3.57-3.57a2.54 2.54 0 0 1 3.36.21zm-7.4-1.4 8.8 8.8-5.83 2.19-5.16-5.16zm-5.47 14.27a3.15 3.15 0 0 1 0-4.44l2.22-2.23 4.45 4.45-2.23 2.22a3.14 3.14 0 0 1 -4.44 0zm5.08 2.05a4.65 4.65 0 0 0 .78-.64l1.22-1.22v4.73h-2zm-25.47 14.87 3.89 4.67-3.84 1.92-2.19-6.59zm10.94 0h2.14l-2.19 6.59-3.84-1.92zm6.53-11.5a1.5 1.5 0 0 1 -1.5 1.5h-.7a10.2 10.2 0 0 0 .2-2v-1h.5a1.5 1.5 0 0 1 1.5 1.5zm-22.5 1.5a1.5 1.5 0 0 1 0-3h.5v1a10.2 10.2 0 0 0 .2 2zm1.5-7a9 9 0 0 1 18 0v2h-6a5 5 0 0 1 -4-2l-1.2-1.6a1 1 0 0 0 -1.6 0l-1.2 1.6a5 5 0 0 1 -4 2zm1 5v-1.07a7.06 7.06 0 0 0 4.6-2.73l.4-.53.4.53a7 7 0 0 0 5.6 2.8h5v1a8 8 0 0 1 -16 0zm8 10a9.92 9.92 0 0 0 4-.84v1.48l-4 4.8-4-4.8v-1.48a9.92 9.92 0 0 0 4 .84zm22 5a3 3 0 0 1 -3 3h-4v-2h-2v17h-23v-9h-2v9h-4v-13a8 8 0 0 1 6.34-7.82l2.71 8.14a1 1 0 0 0 .95.68 1 1 0 0 0 .45-.11l5.55-2.77 5.55 2.77a1 1 0 0 0 .45.11 1 1 0 0 0 .95-.68l2.77-8.32h7.28a1 1 0 0 0 1-1v-9h4z"/><path d="m50.38 3.5h4.24v2h-4.24z" transform="matrix(.707 -.707 .707 .707 12.19 38.44)"/><path d="m47 1h2v4h-2z"/><path d="m52 8h4v2h-4z"/><path d="m55 49h-2v2h-1a1 1 0 0 0 -.92.62 1 1 0 0 0 .21 1.09l2.3 2.29h-2.59v2h2v2h2v-2h1a1 1 0 0 0 .92-.62 1 1 0 0 0 -.21-1.09l-2.3-2.29h2.59v-2h-2z"/><path d="m54 45a9 9 0 1 0 9 9 9 9 0 0 0 -9-9zm0 16a7 7 0 1 1 7-7 7 7 0 0 1 -7 7z"/><path d="m53 29v2h-1a1 1 0 0 0 -.92.62 1 1 0 0 0 .21 1.09l2.3 2.29h-2.59v2h2v2h2v-2h1a1 1 0 0 0 .92-.62 1 1 0 0 0 -.21-1.09l-2.3-2.29h2.59v-2h-2v-2z"/><path d="m45 34a9 9 0 1 0 9-9 9 9 0 0 0 -9 9zm16 0a7 7 0 1 1 -7-7 7 7 0 0 1 7 7z"/></g></g></svg>