<svg xmlns="http://www.w3.org/2000/svg" height="500" width="500" viewBox="0 0 1333.33 1307.21" shape-rendering="geometricPrecision" text-rendering="geometricPrecision" image-rendering="optimizeQuality" fill-rule="evenodd" clip-rule="evenodd"><path d="M591.36 757.46c26.93 56.14 108.54 58.11 134.31.32-7.03-7.12-12.24-14.74-17.43-22.32-.85-1.24-1.7-2.48-2.56-3.72-12.45 9.87-27.54 16.17-47.22 16.12-21.22-.06-37.21-8.17-50.31-20.15-.78-.72-1.56-1.45-2.32-2.19-1.88 5.22-4.26 11.45-6.81 17.27-2.46 5.61-5.1 10.89-7.66 14.67zm662-350.37V863.8h54.42c8.92 0 16.22 7.3 16.22 16.22v410.96c0 8.92-7.3 16.22-16.22 16.22H16.22c-8.92 0-16.22-7.3-16.22-16.22V880.02c0-8.93 7.3-16.22 16.22-16.22h54.42V393.4c-5.43-4.1-10.57-8.57-15.37-13.37-26.33-26.33-42.68-62.67-42.68-102.65V221l.02-.78v-.07c-.02-2.78.66-5.59 2.11-8.19L128.91 8.48c3.03-5.41 8.64-8.45 14.43-8.46L1193.42 0c6.57 0 12.26 3.84 14.93 9.39l122.53 202.11a16.52 16.52 0 012.37 7.76v.04c.06.56.08 1.12.08 1.69v56.38c0 39.98-16.35 76.32-42.68 102.65a146.547 146.547 0 01-37.3 27.06zM1126.63 863.8V409.04a146.558 146.558 0 01-41.28-29.01 146.648 146.648 0 01-26.11-35.45 146.454 146.454 0 01-26.11 35.45c-26.33 26.33-62.67 42.68-102.65 42.68-39.98 0-76.32-16.35-102.65-42.68a146.648 146.648 0 01-26.11-35.45 146.454 146.454 0 01-26.11 35.45c-26.33 26.33-62.67 42.68-102.65 42.68-39.98 0-76.33-16.35-102.65-42.68a146.648 146.648 0 01-26.11-35.45 146.454 146.454 0 01-26.11 35.45c-26.33 26.33-62.67 42.68-102.65 42.68-39.98 0-76.32-16.35-102.65-42.68a146.648 146.648 0 01-26.11-35.45 146.454 146.454 0 01-26.11 35.45c-17.33 17.33-39 30.33-63.19 37.2V863.8h216.83c2.06-19.81 13.31-42.74 20.52-52.27 6.48-8.55 14.52-14.87 23.43-19.84 26.75-14.92 96.35-19.84 125.22-40 2.12-3.19 4.41-7.83 6.61-12.84 3.31-7.56 6.34-15.84 8.26-21.48-8.09-9.51-14.99-20.25-21.64-30.82l-21.89-34.8c-8-11.93-12.16-22.85-12.41-31.8-.12-4.21.59-8.04 2.15-11.39 1.63-3.52 4.14-6.47 7.52-8.74 1.58-1.07 3.35-1.97 5.31-2.71-1.42-18.87-1.95-42.67-1.04-62.57.47-4.72 1.37-9.45 2.7-14.17 5.59-19.99 19.62-36.07 36.98-47.13 9.57-6.09 20.06-10.7 31-13.8 6.94-1.96-.99-17.63 6.19-18.36 34.75-3.57 86.05 21.59 110.31 47.84 12.15 13.15 19.78 30.58 21.43 53.64l-1.36 56.8c6.07 1.85 9.96 5.7 11.55 11.93 1.76 6.89-.15 16.63-6 29.9l-.02-.01c-.11.24-.23.48-.37.72l-24.94 41.08c-9.17 15.09-18.47 30.22-30.6 42.18 1.09 1.57 2.18 3.16 3.27 4.76 4.94 7.23 9.91 14.49 16.31 20.97.2.2.39.43.55.66 28.73 20.29 98.63 25.19 125.45 40.15 8.91 4.96 16.96 11.29 23.43 19.84 7.22 9.53 18.46 32.46 20.53 52.27h223.98zM56.89 204.43h216.67l39.82-171.29H153.01L56.89 204.43zM800.06 33.14l16.56 171.29h221.14l-45.3-171.29H800.05zm-16.62 171.29L766.88 33.14h-188.3l-16.23 171.29h221.09zm-254.26 0l16.23-171.29H347.32l-39.83 171.29h221.68zm497.48-171.29l45.29 171.29h216.06L1184.17 33.14h-157.51zm49.15 204.43v39.81c0 30.83 12.63 58.88 32.97 79.22 20.34 20.34 48.39 32.97 79.22 32.97s58.88-12.63 79.22-32.97c20.34-20.34 32.97-48.39 32.97-79.22v-39.81H1075.8zm-257.52 0v39.81c0 30.83 12.63 58.88 32.97 79.22 20.34 20.34 48.39 32.97 79.22 32.97 30.84 0 58.89-12.63 79.22-32.97 20.34-20.34 32.97-48.39 32.97-79.22v-39.81H818.28zm-257.52 0v39.81c0 30.83 12.63 58.88 32.97 79.22 20.33 20.34 48.39 32.97 79.22 32.97s58.88-12.63 79.22-32.97c20.34-20.34 32.97-48.39 32.97-79.22v-39.81H560.77zm-257.52 0v39.81c0 30.83 12.63 58.88 32.97 79.22 20.34 20.34 48.39 32.97 79.22 32.97s58.88-12.63 79.22-32.97c20.34-20.34 32.97-48.39 32.97-79.22v-39.81H303.24zm-33.14 0H45.72v39.81c0 30.83 12.63 58.88 32.97 79.22 20.33 20.34 48.39 32.97 79.22 32.97s58.88-12.63 79.22-32.97c20.34-20.34 32.97-48.39 32.97-79.22v-39.81zM524 863.81h273.26l7.35-82.22c-22.58-4.41-46.48-7.83-71.48-22.23-15.42 67.81-120.11 77.52-150.28 1.81-22.42 11.3-44.23 17.75-70.28 21.78l11.45 80.87zM76.75 931.75h1170.52c5.23 0 9.52 4.29 9.52 9.52v288.47c0 5.23-4.29 9.52-9.52 9.52H76.75c-5.23 0-9.52-4.28-9.52-9.52V941.27c0-5.24 4.28-9.52 9.52-9.52zM569.9 607.22c-4.85.19-8.52 1.19-11.04 2.88-1.43.96-2.49 2.19-3.16 3.65-.76 1.62-1.1 3.6-1.04 5.87.19 6.66 3.68 15.36 10.43 25.39l.1.15 21.89 34.81c8.78 13.96 17.98 28.18 29.42 38.64 10.99 10.05 24.34 16.85 41.97 16.9 19.1.05 33.07-7.02 44.41-17.63 11.8-11.04 21.1-26.18 30.27-41.28l24.65-40.61c4.6-10.48 6.27-17.51 5.22-21.62-.63-2.44-3.33-3.65-7.94-3.88-.98-.05-1.98-.06-3-.03-1.1.03-2.25.11-3.44.22-.66.06-1.29.02-1.9-.13-2.19.12-4.45-.03-6.76-.37l8.44-37.37c-62.65 9.87-109.52-36.66-175.75-9.31l4.78 44.05c-2.67.12-5.2.03-7.55-.33z"/></svg>