<svg id="Capa_1" enable-background="new 0 0 512 512" height="512" viewBox="0 0 512 512" width="512" xmlns="http://www.w3.org/2000/svg"><g><path d="m121 158.504v90c0 19.299 15.701 35 35 35h200c19.299 0 35-15.701 35-35v-90l-135-10z" fill="#55696e"/><path d="m391 158.5v90c0 19.3-15.7 35-35 35h-100v-135z" fill="#495959"/><path d="m316 28.504v50h-30v-35h-60v35h-30v-50c0-8.28 6.72-15 15-15h90c8.28 0 15 6.72 15 15z" fill="#55696e"/><path d="m316 28.5v50h-30v-35h-30v-30h45c8.28 0 15 6.72 15 15z" fill="#495959"/><path d="m271 153.504v40c0 8.28-6.72 15-15 15s-15-6.72-15-15v-40z" fill="#fedd33"/><path d="m271 153.5v40c0 8.28-6.72 15-15 15v-55z" fill="#fbbd43"/><path d="m391 88.504c0-8.284-6.716-15-15-15h-240c-8.284 0-15 6.716-15 15v70h270z" fill="#607881"/><path d="m391 88.5v70h-135v-85h120c8.28 0 15 6.72 15 15z" fill="#55696e"/><path d="m110.85 312.142c-5.857-5.857-15.355-5.857-21.213 0l-59.637 59.637v-33.788c0-8.284-6.716-15-15-15s-15 6.716-15 15v70c0 8.284 6.716 15 15 15h70c8.284 0 15-6.716 15-15s-6.716-15-15-15h-33.787l59.637-59.637c5.858-5.857 5.858-15.355 0-21.212z" fill="#eb8b7f"/><path d="m497 322.992c-8.284 0-15 6.716-15 15v33.788l-59.637-59.637c-5.857-5.857-15.355-5.857-21.213 0s-5.858 15.355 0 21.213l59.637 59.637h-33.787c-8.284 0-15 6.716-15 15s6.716 15 15 15h70c8.284 0 15-6.716 15-15v-70c0-8.286-6.716-15.001-15-15.001z" fill="#f47160"/><path d="m316.104 423.401c-5.858-5.858-15.355-5.858-21.213 0l-23.891 23.891v-88.787c0-8.284-6.716-15-15-15s-15 6.716-15 15v88.787l-23.891-23.891c-5.857-5.857-15.355-5.857-21.213 0s-5.858 15.355 0 21.213l49.495 49.495c5.898 5.899 15.418 5.801 21.218 0l49.495-49.495c5.858-5.858 5.858-15.356 0-21.213z" fill="#eb8b7f"/><path d="m316.1 444.61-49.49 49.5c-2.91 2.91-6.75 4.39-10.61 4.39v-155c8.28 0 15 6.72 15 15v88.79l23.89-23.89c5.86-5.86 15.36-5.86 21.21 0 5.86 5.86 5.86 15.36 0 21.21z" fill="#f47160"/></g></svg>