<?xml version="1.0" encoding="iso-8859-1"?>
<!-- Generator: Adobe Illustrator 19.0.0, SVG Export Plug-In . SVG Version: 6.00 Build 0)  -->
<svg version="1.1" id="Capa_1" xmlns="http://www.w3.org/2000/svg" xmlns:xlink="http://www.w3.org/1999/xlink" x="0px" y="0px"
	 viewBox="0 0 512 512" style="enable-background:new 0 0 512 512;" xml:space="preserve">
<path style="fill:#344A5E;" d="M480,0H32C13.867,0,0,13.867,0,32v448c0,18.133,13.867,32,32,32h448c18.133,0,32-13.867,32-32V32
	C512,13.867,498.133,0,480,0z"/>
<rect x="131.2" y="137.6" style="fill:#F3F3F3;" width="249.6" height="238.933"/>
<polygon style="fill:#F3705A;" points="202.667,189.867 202.667,324.267 309.333,257.067 "/>
<g>
	<rect x="42.667" y="43.733" style="fill:#F3F3F3;" width="45.867" height="49.067"/>
	<rect x="42.667" y="137.6" style="fill:#F3F3F3;" width="45.867" height="49.067"/>
	<rect x="42.667" y="231.467" style="fill:#F3F3F3;" width="45.867" height="49.067"/>
	<rect x="42.667" y="325.333" style="fill:#F3F3F3;" width="45.867" height="49.067"/>
	<rect x="42.667" y="419.2" style="fill:#F3F3F3;" width="45.867" height="49.067"/>
	<rect x="423.467" y="43.733" style="fill:#F3F3F3;" width="45.867" height="49.067"/>
	<rect x="423.467" y="137.6" style="fill:#F3F3F3;" width="45.867" height="49.067"/>
	<rect x="423.467" y="231.467" style="fill:#F3F3F3;" width="45.867" height="49.067"/>
	<rect x="423.467" y="325.333" style="fill:#F3F3F3;" width="45.867" height="49.067"/>
	<rect x="423.467" y="419.2" style="fill:#F3F3F3;" width="45.867" height="49.067"/>
	<rect x="131.2" y="429.867" style="fill:#F3F3F3;" width="249.6" height="82.133"/>
	<rect x="131.2" style="fill:#F3F3F3;" width="249.6" height="92.8"/>
</g>
<g>
</g>
<g>
</g>
<g>
</g>
<g>
</g>
<g>
</g>
<g>
</g>
<g>
</g>
<g>
</g>
<g>
</g>
<g>
</g>
<g>
</g>
<g>
</g>
<g>
</g>
<g>
</g>
<g>
</g>
</svg>
